{
  "accessors": [
    {
      "bufferView": 2,
      "componentType": 5126,
      "count": 4169,
      "max": [
        0.9775710105895996,
        0.9726719856262207,
        0.9090870022773743
      ],
      "min": [
        -0.9775710105895996,
        -0.9726719856262207,
        -0.9090870022773743
      ],
      "type": "VEC3"
    },
    {
      "bufferView": 2,
      "byteOffset": 50028,
      "componentType": 5126,
      "count": 4169,
      "max": [
        0.9999727010726929,
        1.0,
        0.9943239688873291
      ],
      "min": [
        -0.9999727010726929,
        -1.0,
        -0.9943239688873291
      ],
      "type": "VEC3"
    },
    {
      "bufferView": 1,
      "componentType": 5126,
      "count": 4169,
      "max": [
        0.9697390198707581,
        0.41996800899505615
      ],
      "min": [
        0.030261000618338585,
        0.052414000034332275
      ],
      "type": "VEC2"
    },
    {
      "bufferView": 0,
      "componentType": 5125,
      "count": 23040,
      "type": "SCALAR"
    },
    {
      "bufferView": 2,
      "byteOffset": 100056,
      "componentType": 5126,
      "count": 2172,
      "max": [
        0.9475560188293457,
        0.9390770196914673,
        0.9788010120391846
      ],
      "min": [
        -0.9475560188293457,
        -0.9390770196914673,
        -0.9788010120391846
      ],
      "type": "VEC3"
    },
    {
      "bufferView": 2,
      "byteOffset": 126120,
      "componentType": 5126,
      "count": 2172,
      "max": [
        0.9995037913322449,
        0.9999687671661377,
        1.0
      ],
      "min": [
        -0.9995037913322449,
        -0.9999687671661377,
        -1.0
      ],
      "type": "VEC3"
    },
    {
      "bufferView": 1,
      "byteOffset": 33352,
      "componentType": 5126,
      "count": 2172,
      "max": [
        0.9697390198707581,
        0.41996800899505615
      ],
      "min": [
        0.030261000618338585,
        0.052414000034332275
      ],
      "type": "VEC2"
    },
    {
      "bufferView": 0,
      "byteOffset": 92160,
      "componentType": 5125,
      "count": 11520,
      "type": "SCALAR"
    }
  ],
  "asset": {
    "extras": {
      "author": "EA Sports (https://sketchfab.com/jhsgkdfhk)",
      "license": "CC-BY-4.0 (http://creativecommons.org/licenses/by/4.0/)",
      "source": "https://sketchfab.com/3d-models/soccer-ball-1122127afbf14972bbf1aaff59f353d1",
      "title": "Soccer Ball"
    },
    "generator": "Sketchfab-16.59.0",
    "version": "2.0"
  },
  "bufferViews": [
    {
      "buffer": 0,
      "byteLength": 138240,
      "name": "floatBufferViews",
      "target": 34963
    },
    {
      "buffer": 0,
      "byteLength": 50728,
      "byteOffset": 138240,
      "byteStride": 8,
      "name": "floatBufferViews",
      "target": 34962
    },
    {
      "buffer": 0,
      "byteLength": 152184,
      "byteOffset": 188968,
      "byteStride": 12,
      "name": "floatBufferViews",
      "target": 34962
    }
  ],
  "buffers": [
    {
      "byteLength": 341152,
      "uri": "scene.bin"
    }
  ],
  "materials": [
    {
      "doubleSided": true,
      "name": "Material.001",
      "pbrMetallicRoughness": {
        "metallicFactor": 0.0,
        "roughnessFactor": 0.8011823178082373
      }
    },
    {
      "doubleSided": true,
      "name": "Material.002",
      "pbrMetallicRoughness": {
        "baseColorFactor": [
          0.0,
          0.0,
          0.0,
          1.0
        ],
        "metallicFactor": 0.0,
        "roughnessFactor": 0.8011823178082373
      }
    }
  ],
  "meshes": [
    {
      "name": "Object_0",
      "primitives": [
        {
          "attributes": {
            "NORMAL": 1,
            "POSITION": 0,
            "TEXCOORD_0": 2
          },
          "indices": 3,
          "material": 0,
          "mode": 4
        }
      ]
    },
    {
      "name": "Object_1",
      "primitives": [
        {
          "attributes": {
            "NORMAL": 5,
            "POSITION": 4,
            "TEXCOORD_0": 6
          },
          "indices": 7,
          "material": 1,
          "mode": 4
        }
      ]
    }
  ],
  "nodes": [
    {
      "children": [
        1
      ],
      "matrix": [
        0.25,
        0.0,
        0.0,
        0.0,
        0.0,
        5.551115123125783e-17,
        -0.25,
        0.0,
        0.0,
        0.25,
        5.551115123125783e-17,
        0.0,
        0.0,
        0.0,
        0.0,
        1.0
      ],
      "name": "Sketchfab_model"
    },
    {
      "children": [
        2,
        3
      ],
      "name": "soccer.obj.cleaner.materialmerger.gles"
    },
    {
      "mesh": 0,
      "name": "Object_2"
    },
    {
      "mesh": 1,
      "name": "Object_3"
    }
  ],
  "scene": 0,
  "scenes": [
    {
      "name": "Sketchfab_Scene",
      "nodes": [
        0
      ]
    }
  ]
}
